<svg xmlns="http://www.w3.org/2000/svg" xmlns:xlink="http://www.w3.org/1999/xlink" zoomAndPan="magnify" preserveAspectRatio="xMidYMid meet" version="1.0" viewBox="105.77 165.34 164.06 49.34"><defs><g/></defs><g fill="#d3d5d4" fill-opacity="1"><g transform="translate(128.162721, 183.749988)"><g><path d="M 10.703125 -4.117188 C 11.449219 -4.117188 12.042969 -4.429688 12.480469 -5.117188 L 16.660156 -11.792969 L 16.660156 -1.371094 C 16.660156 -1 16.785156 -0.65625 17.066406 -0.40625 C 17.316406 -0.125 17.660156 0 18.035156 0 C 18.40625 0 18.71875 -0.125 18.96875 -0.40625 C 19.21875 -0.65625 19.375 -1 19.375 -1.371094 L 19.375 -17.222656 C 19.375 -17.535156 19.25 -17.816406 19.03125 -18.066406 C 18.78125 -18.28125 18.5 -18.40625 18.191406 -18.40625 C 17.753906 -18.40625 17.441406 -18.222656 17.191406 -17.878906 L 10.703125 -7.363281 L 4.210938 -17.878906 C 3.960938 -18.222656 3.621094 -18.40625 3.214844 -18.40625 C 2.871094 -18.40625 2.589844 -18.28125 2.371094 -18.066406 C 2.121094 -17.816406 2.027344 -17.535156 2.027344 -17.222656 L 2.027344 -1.371094 C 2.027344 -1 2.152344 -0.65625 2.402344 -0.40625 C 2.652344 -0.125 2.996094 0 3.371094 0 C 3.742188 0 4.054688 -0.125 4.335938 -0.40625 C 4.585938 -0.65625 4.742188 -1 4.742188 -1.371094 L 4.742188 -11.792969 L 8.921875 -5.117188 C 9.328125 -4.429688 9.921875 -4.117188 10.703125 -4.117188 Z M 10.703125 -4.117188 "/></g></g></g><g fill="#d3d5d4" fill-opacity="1"><g transform="translate(152.526738, 183.749988)"><g><path d="M 10.109375 -1.339844 C 10.109375 -0.96875 10.234375 -0.625 10.484375 -0.375 C 10.734375 -0.125 11.074219 0 11.449219 0 C 11.824219 0 12.136719 -0.125 12.417969 -0.375 C 12.667969 -0.625 12.824219 -0.96875 12.824219 -1.339844 L 12.824219 -7.644531 C 12.824219 -9.296875 12.261719 -10.578125 11.199219 -11.480469 C 10.140625 -12.355469 8.640625 -12.824219 6.707031 -12.824219 C 5.335938 -12.824219 4.210938 -12.699219 3.371094 -12.449219 C 2.777344 -12.292969 2.496094 -11.886719 2.496094 -11.261719 C 2.496094 -10.890625 2.589844 -10.609375 2.839844 -10.390625 C 3.058594 -10.171875 3.339844 -10.078125 3.679688 -10.078125 C 4.367188 -10.203125 4.960938 -10.265625 5.523438 -10.265625 C 7.269531 -10.265625 8.457031 -10.015625 9.109375 -9.546875 C 9.765625 -9.078125 10.109375 -8.425781 10.109375 -7.550781 L 10.109375 -6.519531 C 8.765625 -7.363281 7.207031 -7.800781 5.398438 -7.800781 C 4.023438 -7.800781 2.996094 -7.425781 2.308594 -6.707031 C 1.589844 -5.992188 1.246094 -5.085938 1.246094 -3.992188 C 1.246094 -3.246094 1.371094 -2.621094 1.621094 -2.089844 C 1.871094 -1.527344 2.152344 -1.125 2.496094 -0.84375 C 2.808594 -0.5625 3.183594 -0.34375 3.621094 -0.1875 C 4.023438 0 4.367188 0.09375 4.617188 0.125 C 4.867188 0.1875 5.117188 0.1875 5.304688 0.1875 L 5.679688 0.1875 C 7.582031 0.1875 9.046875 -0.3125 10.109375 -1.339844 Z M 10.109375 -4.304688 L 10.109375 -3.558594 L 9.859375 -3.246094 C 9.671875 -3.058594 9.296875 -2.839844 8.734375 -2.652344 C 8.175781 -2.464844 7.488281 -2.371094 6.738281 -2.371094 C 4.867188 -2.371094 3.960938 -2.871094 3.960938 -3.898438 C 3.960938 -4.398438 4.148438 -4.773438 4.523438 -5.023438 C 4.898438 -5.273438 5.617188 -5.398438 6.738281 -5.398438 C 8.207031 -5.398438 9.328125 -5.023438 10.109375 -4.304688 Z M 10.109375 -4.304688 "/></g></g></g><g fill="#d3d5d4" fill-opacity="1"><g transform="translate(170.183752, 183.749988)"><g><path d="M 10.980469 -1.402344 C 11.011719 -0.96875 11.136719 -0.625 11.386719 -0.375 C 11.636719 -0.125 11.949219 0 12.324219 0 C 12.699219 0 13.011719 -0.125 13.292969 -0.40625 C 13.539062 -0.65625 13.695312 -1 13.695312 -1.371094 L 13.695312 -17.035156 C 13.695312 -17.410156 13.539062 -17.722656 13.292969 -18.003906 C 13.011719 -18.253906 12.699219 -18.40625 12.324219 -18.40625 C 11.949219 -18.40625 11.605469 -18.253906 11.355469 -18.003906 C 11.105469 -17.722656 10.980469 -17.410156 10.980469 -17.035156 L 10.980469 -11.230469 C 10.109375 -12.292969 8.828125 -12.824219 7.175781 -12.824219 C 5.585938 -12.824219 4.210938 -12.261719 3.089844 -11.199219 C 1.964844 -10.140625 1.402344 -8.578125 1.402344 -6.519531 C 1.402344 -4.148438 1.933594 -2.464844 3.058594 -1.402344 C 4.179688 -0.34375 5.460938 0.1875 6.925781 0.1875 C 8.671875 0.1875 10.015625 -0.34375 10.980469 -1.402344 Z M 10.921875 -7.769531 L 10.921875 -4.867188 L 10.640625 -4.242188 C 10.453125 -3.804688 10.078125 -3.402344 9.546875 -2.996094 C 8.984375 -2.558594 8.363281 -2.371094 7.644531 -2.371094 C 7.332031 -2.371094 7.050781 -2.371094 6.863281 -2.402344 C 6.675781 -2.402344 6.363281 -2.496094 5.992188 -2.652344 C 5.585938 -2.777344 5.273438 -2.996094 5.054688 -3.246094 C 4.804688 -3.496094 4.585938 -3.929688 4.398438 -4.492188 C 4.210938 -5.054688 4.117188 -5.710938 4.117188 -6.519531 C 4.117188 -7.300781 4.242188 -7.957031 4.492188 -8.519531 C 4.742188 -9.078125 5.085938 -9.453125 5.523438 -9.703125 C 5.929688 -9.921875 6.300781 -10.078125 6.644531 -10.140625 C 6.957031 -10.203125 7.300781 -10.265625 7.644531 -10.265625 C 8.082031 -10.265625 8.519531 -10.171875 8.921875 -9.984375 C 9.296875 -9.796875 9.609375 -9.609375 9.859375 -9.390625 C 10.078125 -9.171875 10.265625 -8.921875 10.453125 -8.640625 C 10.640625 -8.332031 10.734375 -8.144531 10.796875 -8.019531 C 10.859375 -7.894531 10.890625 -7.832031 10.921875 -7.769531 Z M 10.921875 -7.769531 "/></g></g></g><g fill="#d3d5d4" fill-opacity="1"><g transform="translate(188.714236, 183.749988)"><g><path d="M 10.921875 -2.589844 C 9.828125 -2.433594 9.078125 -2.371094 8.640625 -2.371094 C 7.050781 -2.371094 5.960938 -2.558594 5.367188 -2.996094 C 4.742188 -3.433594 4.335938 -4.148438 4.117188 -5.210938 L 11.011719 -5.210938 C 11.542969 -5.210938 12.011719 -5.398438 12.417969 -5.773438 C 12.792969 -6.144531 13.011719 -6.582031 13.011719 -7.113281 C 13.011719 -8.796875 12.511719 -10.171875 11.511719 -11.230469 C 10.515625 -12.292969 9.109375 -12.824219 7.238281 -12.824219 C 5.367188 -12.824219 3.898438 -12.199219 2.902344 -10.980469 C 1.902344 -9.765625 1.402344 -8.207031 1.402344 -6.332031 C 1.402344 -4.398438 1.933594 -2.839844 2.996094 -1.621094 C 4.054688 -0.40625 5.617188 0.1875 7.707031 0.1875 C 8.953125 0.1875 10.109375 0.09375 11.136719 -0.15625 C 11.417969 -0.1875 11.667969 -0.3125 11.855469 -0.53125 C 12.042969 -0.75 12.136719 -1.03125 12.136719 -1.339844 C 12.136719 -1.652344 12.011719 -1.964844 11.761719 -2.214844 C 11.511719 -2.464844 11.230469 -2.589844 10.921875 -2.589844 Z M 10.328125 -7.550781 L 4.117188 -7.550781 C 4.304688 -8.488281 4.617188 -9.171875 5.117188 -9.609375 C 5.585938 -10.046875 6.269531 -10.265625 7.207031 -10.265625 C 8.082031 -10.265625 8.796875 -10.046875 9.296875 -9.671875 C 9.796875 -9.265625 10.140625 -8.546875 10.328125 -7.550781 Z M 10.328125 -7.550781 "/></g></g></g><g fill="#d3d5d4" fill-opacity="1"><g transform="translate(206.246475, 183.749988)"><g/></g></g><g fill="#d3d5d4" fill-opacity="1"><g transform="translate(215.418359, 183.749988)"><g><path d="M 4.585938 -1.402344 C 5.523438 -0.34375 6.894531 0.1875 8.640625 0.1875 C 10.078125 0.1875 11.355469 -0.34375 12.480469 -1.402344 C 13.601562 -2.464844 14.164062 -4.148438 14.164062 -6.519531 C 14.164062 -8.578125 13.570312 -10.140625 12.449219 -11.199219 C 11.324219 -12.261719 9.953125 -12.824219 8.394531 -12.824219 C 6.707031 -12.824219 5.460938 -12.292969 4.585938 -11.230469 L 4.585938 -17.035156 C 4.585938 -17.410156 4.429688 -17.722656 4.179688 -18.003906 C 3.929688 -18.253906 3.621094 -18.40625 3.246094 -18.40625 C 2.871094 -18.40625 2.527344 -18.253906 2.277344 -18.003906 C 1.996094 -17.722656 1.871094 -17.410156 1.871094 -17.035156 L 1.871094 -1.371094 C 1.871094 -1 1.996094 -0.65625 2.277344 -0.40625 C 2.527344 -0.125 2.871094 0 3.246094 0 C 3.621094 0 3.898438 -0.125 4.148438 -0.375 C 4.398438 -0.625 4.523438 -0.96875 4.585938 -1.402344 Z M 4.648438 -4.867188 L 4.648438 -7.769531 L 4.929688 -8.394531 C 5.117188 -8.796875 5.460938 -9.203125 6.023438 -9.640625 C 6.550781 -10.046875 7.175781 -10.265625 7.925781 -10.265625 C 8.238281 -10.265625 8.578125 -10.203125 8.921875 -10.140625 C 9.234375 -10.078125 9.609375 -9.921875 10.046875 -9.703125 C 10.453125 -9.453125 10.796875 -9.078125 11.042969 -8.519531 C 11.292969 -7.957031 11.449219 -7.300781 11.449219 -6.519531 C 11.449219 -5.710938 11.324219 -5.054688 11.136719 -4.492188 C 10.953125 -3.929688 10.734375 -3.496094 10.515625 -3.246094 C 10.265625 -2.996094 9.953125 -2.777344 9.578125 -2.652344 C 9.171875 -2.496094 8.859375 -2.402344 8.671875 -2.402344 C 8.488281 -2.371094 8.238281 -2.371094 7.925781 -2.371094 C 7.457031 -2.371094 7.019531 -2.433594 6.644531 -2.621094 C 6.238281 -2.808594 5.929688 -2.996094 5.710938 -3.214844 C 5.460938 -3.433594 5.273438 -3.679688 5.085938 -3.992188 C 4.898438 -4.273438 4.804688 -4.460938 4.742188 -4.585938 C 4.679688 -4.710938 4.648438 -4.804688 4.648438 -4.867188 Z M 4.648438 -4.867188 "/></g></g></g><g fill="#d3d5d4" fill-opacity="1"><g transform="translate(233.948843, 183.749988)"><g><path d="M 1.808594 3.621094 C 1.464844 3.621094 1.15625 3.742188 0.90625 3.992188 C 0.65625 4.242188 0.53125 4.554688 0.53125 4.898438 C 0.53125 5.273438 0.65625 5.554688 0.90625 5.804688 C 1.15625 6.054688 1.464844 6.175781 1.808594 6.175781 L 2.433594 6.175781 C 3.246094 6.175781 3.960938 5.992188 4.585938 5.617188 C 5.210938 5.242188 5.742188 4.492188 6.238281 3.339844 L 12.167969 -10.640625 C 12.230469 -10.953125 12.261719 -11.136719 12.261719 -11.230469 C 12.261719 -11.605469 12.105469 -11.917969 11.855469 -12.199219 C 11.605469 -12.480469 11.292969 -12.636719 10.921875 -12.636719 C 10.234375 -12.636719 9.765625 -12.292969 9.546875 -11.636719 L 6.207031 -3.589844 L 3.339844 -11.636719 C 3.089844 -12.292969 2.652344 -12.636719 1.964844 -12.636719 C 1.589844 -12.636719 1.246094 -12.480469 1 -12.199219 C 0.75 -11.917969 0.625 -11.605469 0.625 -11.230469 C 0.625 -11.136719 0.65625 -10.953125 0.71875 -10.640625 C 1.09375 -9.578125 1.777344 -7.832031 2.714844 -5.398438 C 3.652344 -2.933594 4.335938 -1.125 4.773438 0.0625 L 4.054688 2.058594 C 3.679688 3.058594 2.933594 3.558594 1.808594 3.621094 Z M 1.808594 3.621094 "/></g></g></g><g fill="#d3d5d4" fill-opacity="1"><g transform="translate(104.526, 214.499986)"><g><path d="M 2.839844 -0.84375 C 4.492188 -0.15625 6.300781 0.1875 8.269531 0.1875 C 10.390625 0.1875 12.074219 -0.21875 13.324219 -1.0625 C 14.570312 -1.902344 15.226562 -3.183594 15.226562 -4.898438 C 15.226562 -5.898438 14.820312 -6.769531 14.039062 -7.519531 C 13.261719 -8.269531 12.324219 -8.890625 11.199219 -9.359375 C 10.078125 -9.828125 8.984375 -10.265625 7.894531 -10.671875 C 6.769531 -11.042969 5.835938 -11.480469 5.054688 -11.980469 C 4.273438 -12.449219 3.898438 -12.980469 3.898438 -13.539062 C 3.898438 -13.976562 3.992188 -14.382812 4.242188 -14.726562 C 4.460938 -15.039062 4.710938 -15.289062 5.023438 -15.445312 C 5.304688 -15.601562 5.710938 -15.726562 6.207031 -15.820312 C 6.707031 -15.910156 7.144531 -15.972656 7.457031 -15.972656 C 7.769531 -15.972656 8.207031 -16.003906 8.734375 -16.003906 C 9.296875 -16.003906 10.453125 -15.878906 12.199219 -15.632812 C 12.542969 -15.632812 12.855469 -15.757812 13.105469 -16.003906 C 13.355469 -16.253906 13.507812 -16.535156 13.507812 -16.910156 C 13.507812 -17.222656 13.414062 -17.472656 13.230469 -17.722656 C 13.042969 -17.972656 12.792969 -18.128906 12.511719 -18.191406 C 11.542969 -18.4375 10.203125 -18.5625 8.457031 -18.5625 C 7.425781 -18.5625 6.519531 -18.46875 5.742188 -18.34375 C 4.960938 -18.222656 4.210938 -17.972656 3.496094 -17.628906 C 2.746094 -17.253906 2.183594 -16.722656 1.808594 -16.003906 C 1.433594 -15.257812 1.246094 -14.382812 1.246094 -13.324219 C 1.246094 -12.324219 1.621094 -11.449219 2.402344 -10.703125 C 3.183594 -9.953125 4.117188 -9.359375 5.242188 -8.921875 C 6.363281 -8.488281 7.457031 -8.082031 8.578125 -7.707031 C 9.671875 -7.332031 10.609375 -6.925781 11.386719 -6.457031 C 12.167969 -5.960938 12.574219 -5.429688 12.574219 -4.835938 C 12.574219 -3.183594 11.074219 -2.371094 8.144531 -2.371094 C 6.582031 -2.371094 4.898438 -2.589844 3.121094 -3.058594 C 2.808594 -3.058594 2.558594 -2.933594 2.339844 -2.714844 C 2.089844 -2.496094 1.996094 -2.246094 1.996094 -1.933594 C 1.996094 -1.371094 2.277344 -1.03125 2.839844 -0.84375 Z M 2.839844 -0.84375 "/></g></g></g><g fill="#d3d5d4" fill-opacity="1"><g transform="translate(123.96115, 214.499986)"><g><path d="M 2.027344 -17.035156 L 2.027344 -1.371094 C 2.027344 -1 2.152344 -0.65625 2.402344 -0.40625 C 2.652344 -0.125 2.996094 0 3.371094 0 C 3.742188 0 4.054688 -0.125 4.335938 -0.40625 C 4.585938 -0.65625 4.742188 -1 4.742188 -1.371094 L 4.742188 -17.035156 C 4.742188 -17.410156 4.585938 -17.722656 4.335938 -18.003906 C 4.054688 -18.253906 3.742188 -18.40625 3.371094 -18.40625 C 2.996094 -18.40625 2.652344 -18.253906 2.402344 -18.003906 C 2.152344 -17.722656 2.027344 -17.410156 2.027344 -17.035156 Z M 2.027344 -17.035156 "/></g></g></g><g fill="#d3d5d4" fill-opacity="1"><g transform="translate(133.69455, 214.499986)"><g><path d="M 10.703125 -4.117188 C 11.449219 -4.117188 12.042969 -4.429688 12.480469 -5.117188 L 16.660156 -11.792969 L 16.660156 -1.371094 C 16.660156 -1 16.785156 -0.65625 17.066406 -0.40625 C 17.316406 -0.125 17.660156 0 18.035156 0 C 18.40625 0 18.71875 -0.125 18.96875 -0.40625 C 19.21875 -0.65625 19.375 -1 19.375 -1.371094 L 19.375 -17.222656 C 19.375 -17.535156 19.25 -17.816406 19.03125 -18.066406 C 18.78125 -18.28125 18.5 -18.40625 18.191406 -18.40625 C 17.753906 -18.40625 17.441406 -18.222656 17.191406 -17.878906 L 10.703125 -7.363281 L 4.210938 -17.878906 C 3.960938 -18.222656 3.621094 -18.40625 3.214844 -18.40625 C 2.871094 -18.40625 2.589844 -18.28125 2.371094 -18.066406 C 2.121094 -17.816406 2.027344 -17.535156 2.027344 -17.222656 L 2.027344 -1.371094 C 2.027344 -1 2.152344 -0.65625 2.402344 -0.40625 C 2.652344 -0.125 2.996094 0 3.371094 0 C 3.742188 0 4.054688 -0.125 4.335938 -0.40625 C 4.585938 -0.65625 4.742188 -1 4.742188 -1.371094 L 4.742188 -11.792969 L 8.921875 -5.117188 C 9.328125 -4.429688 9.921875 -4.117188 10.703125 -4.117188 Z M 10.703125 -4.117188 "/></g></g></g><g fill="#d3d5d4" fill-opacity="1"><g transform="translate(158.058568, 214.499986)"><g><path d="M 10.515625 -18.40625 L 3.214844 -18.40625 C 2.839844 -18.40625 2.496094 -18.253906 2.246094 -18.003906 C 1.996094 -17.722656 1.871094 -17.410156 1.871094 -17.035156 L 1.871094 -1.371094 C 1.871094 -1 1.996094 -0.65625 2.246094 -0.40625 C 2.496094 -0.125 2.839844 0 3.214844 0 C 3.589844 0 3.898438 -0.125 4.179688 -0.40625 C 4.429688 -0.65625 4.585938 -1 4.585938 -1.371094 L 4.585938 -5.992188 L 10.609375 -5.992188 C 11.292969 -5.992188 11.917969 -6.085938 12.542969 -6.269531 C 13.167969 -6.457031 13.757812 -6.800781 14.320312 -7.238281 C 14.882812 -7.675781 15.351562 -8.363281 15.695312 -9.234375 C 16.003906 -10.109375 16.191406 -11.136719 16.191406 -12.386719 C 16.191406 -14.351562 15.601562 -15.847656 14.445312 -16.878906 C 13.292969 -17.878906 11.980469 -18.40625 10.515625 -18.40625 Z M 4.585938 -15.847656 L 10.484375 -15.847656 C 12.511719 -15.847656 13.539062 -14.695312 13.539062 -12.386719 C 13.539062 -9.828125 12.511719 -8.546875 10.484375 -8.546875 L 4.585938 -8.546875 Z M 4.585938 -15.847656 "/></g></g></g><g fill="#d3d5d4" fill-opacity="1"><g transform="translate(178.148824, 214.499986)"><g><path d="M 3.371094 0 L 12.324219 0 C 12.667969 0 12.980469 -0.125 13.230469 -0.375 C 13.476562 -0.625 13.601562 -0.90625 13.601562 -1.277344 C 13.601562 -1.621094 13.476562 -1.933594 13.230469 -2.183594 C 12.980469 -2.433594 12.667969 -2.558594 12.324219 -2.558594 L 4.742188 -2.558594 L 4.742188 -17.035156 C 4.742188 -17.410156 4.585938 -17.722656 4.335938 -18.003906 C 4.054688 -18.253906 3.742188 -18.40625 3.371094 -18.40625 C 2.996094 -18.40625 2.652344 -18.253906 2.402344 -18.003906 C 2.152344 -17.722656 2.027344 -17.410156 2.027344 -17.035156 L 2.027344 -1.371094 C 2.027344 -1 2.152344 -0.65625 2.402344 -0.40625 C 2.652344 -0.125 2.996094 0 3.371094 0 Z M 3.371094 0 "/></g></g></g><g fill="#d3d5d4" fill-opacity="1"><g transform="translate(195.961821, 214.499986)"><g><path d="M 2.027344 -17.035156 L 2.027344 -1.371094 C 2.027344 -1 2.152344 -0.65625 2.402344 -0.40625 C 2.652344 -0.125 2.996094 0 3.371094 0 C 3.742188 0 4.054688 -0.125 4.335938 -0.40625 C 4.585938 -0.65625 4.742188 -1 4.742188 -1.371094 L 4.742188 -17.035156 C 4.742188 -17.410156 4.585938 -17.722656 4.335938 -18.003906 C 4.054688 -18.253906 3.742188 -18.40625 3.371094 -18.40625 C 2.996094 -18.40625 2.652344 -18.253906 2.402344 -18.003906 C 2.152344 -17.722656 2.027344 -17.410156 2.027344 -17.035156 Z M 2.027344 -17.035156 "/></g></g></g><g fill="#d3d5d4" fill-opacity="1"><g transform="translate(205.69522, 214.499986)"><g><path d="M 10.453125 0.1875 C 12.136719 0.1875 13.695312 -0.21875 15.195312 -1.03125 C 15.570312 -1.277344 15.789062 -1.621094 15.789062 -2.089844 C 15.789062 -2.433594 15.664062 -2.714844 15.445312 -2.964844 C 15.195312 -3.183594 14.914062 -3.308594 14.570312 -3.308594 C 14.320312 -3.308594 14.132812 -3.246094 14.007812 -3.183594 C 12.824219 -2.621094 11.605469 -2.371094 10.390625 -2.371094 C 9.796875 -2.371094 9.234375 -2.402344 8.734375 -2.496094 C 8.238281 -2.558594 7.675781 -2.746094 7.050781 -3.058594 C 6.425781 -3.371094 5.929688 -3.742188 5.492188 -4.242188 C 5.054688 -4.742188 4.679688 -5.429688 4.398438 -6.332031 C 4.085938 -7.207031 3.960938 -8.269531 3.960938 -9.453125 C 3.960938 -13.820312 6.085938 -16.003906 10.390625 -16.003906 C 11.605469 -16.003906 12.824219 -15.726562 14.007812 -15.195312 C 14.132812 -15.101562 14.320312 -15.070312 14.570312 -15.070312 C 14.914062 -15.070312 15.195312 -15.164062 15.445312 -15.414062 C 15.664062 -15.664062 15.789062 -15.941406 15.789062 -16.285156 C 15.789062 -16.722656 15.570312 -17.097656 15.195312 -17.347656 C 13.695312 -18.160156 12.105469 -18.5625 10.421875 -18.5625 C 9.296875 -18.5625 8.238281 -18.375 7.207031 -18.066406 C 6.175781 -17.753906 5.210938 -17.253906 4.304688 -16.566406 C 3.371094 -15.878906 2.652344 -14.945312 2.089844 -13.757812 C 1.527344 -12.542969 1.246094 -11.136719 1.246094 -9.546875 C 1.246094 -8.019531 1.433594 -6.675781 1.871094 -5.492188 C 2.308594 -4.304688 2.839844 -3.339844 3.496094 -2.652344 C 4.148438 -1.964844 4.898438 -1.371094 5.773438 -0.9375 C 6.613281 -0.5 7.425781 -0.1875 8.175781 -0.03125 C 8.921875 0.125 9.703125 0.1875 10.453125 0.1875 Z M 10.453125 0.1875 "/></g></g></g><g fill="#d3d5d4" fill-opacity="1"><g transform="translate(225.754286, 214.499986)"><g><path d="M 2.027344 -17.035156 L 2.027344 -1.371094 C 2.027344 -1 2.152344 -0.65625 2.402344 -0.40625 C 2.652344 -0.125 2.996094 0 3.371094 0 C 3.742188 0 4.054688 -0.125 4.335938 -0.40625 C 4.585938 -0.65625 4.742188 -1 4.742188 -1.371094 L 4.742188 -17.035156 C 4.742188 -17.410156 4.585938 -17.722656 4.335938 -18.003906 C 4.054688 -18.253906 3.742188 -18.40625 3.371094 -18.40625 C 2.996094 -18.40625 2.652344 -18.253906 2.402344 -18.003906 C 2.152344 -17.722656 2.027344 -17.410156 2.027344 -17.035156 Z M 2.027344 -17.035156 "/></g></g></g><g fill="#d3d5d4" fill-opacity="1"><g transform="translate(235.487691, 214.499986)"><g><path d="M 6.832031 -15.847656 L 6.832031 -1.371094 C 6.832031 -1 6.957031 -0.65625 7.207031 -0.40625 C 7.457031 -0.125 7.800781 0 8.175781 0 C 8.546875 0 8.859375 -0.125 9.140625 -0.40625 C 9.390625 -0.65625 9.546875 -1 9.546875 -1.371094 L 9.546875 -15.847656 L 13.851562 -15.847656 C 14.195312 -15.847656 14.507812 -15.972656 14.757812 -16.222656 C 15.007812 -16.472656 15.132812 -16.753906 15.132812 -17.128906 C 15.132812 -17.472656 15.007812 -17.785156 14.757812 -18.035156 C 14.507812 -18.28125 14.195312 -18.40625 13.851562 -18.40625 L 2.527344 -18.40625 C 2.152344 -18.40625 1.871094 -18.28125 1.621094 -18.035156 C 1.371094 -17.785156 1.246094 -17.472656 1.246094 -17.128906 C 1.246094 -16.753906 1.371094 -16.472656 1.621094 -16.222656 C 1.871094 -15.972656 2.152344 -15.847656 2.527344 -15.847656 Z M 6.832031 -15.847656 "/></g></g></g><g fill="#d3d5d4" fill-opacity="1"><g transform="translate(254.829258, 214.499986)"><g><path d="M 9.171875 -1.371094 L 9.171875 -6.207031 L 14.851562 -16.378906 C 14.945312 -16.628906 15.007812 -16.847656 15.007812 -17.066406 C 15.007812 -17.441406 14.882812 -17.753906 14.632812 -18.003906 C 14.382812 -18.253906 14.039062 -18.40625 13.664062 -18.40625 C 13.167969 -18.40625 12.792969 -18.191406 12.542969 -17.753906 L 7.832031 -9.453125 L 3.089844 -17.753906 C 2.839844 -18.191406 2.464844 -18.40625 1.964844 -18.40625 C 1.558594 -18.40625 1.246094 -18.253906 1 -18.003906 C 0.75 -17.753906 0.625 -17.441406 0.625 -17.066406 C 0.625 -16.847656 0.65625 -16.628906 0.78125 -16.378906 L 6.457031 -6.207031 L 6.457031 -1.371094 C 6.457031 -1 6.582031 -0.65625 6.832031 -0.40625 C 7.082031 -0.125 7.425781 0 7.800781 0 C 8.175781 0 8.488281 -0.125 8.765625 -0.40625 C 9.015625 -0.65625 9.171875 -1 9.171875 -1.371094 Z M 9.171875 -1.371094 "/></g></g></g></svg>